<svg width="18" height="18" viewBox="0 0 18 18" fill="none" xmlns="http://www.w3.org/2000/svg">
<path d="M12.6377 0H5.3623C2.40551 0 0 2.40551 0 5.3623V12.6377C0 15.5945 2.40551 18 5.3623 18H12.6377C15.5945 18 18 15.5945 18 12.6377V5.3623C18 2.40551 15.5945 0 12.6377 0ZM16.1892 12.6377C16.1892 14.5991 14.5991 16.1892 12.6377 16.1892H5.3623C3.40088 16.1892 1.8108 14.5991 1.8108 12.6377V5.3623C1.8108 3.40084 3.40088 1.8108 5.3623 1.8108H12.6377C14.5991 1.8108 16.1892 3.40084 16.1892 5.3623V12.6377Z" fill="url(#paint0_linear)"/>
<path d="M8.99992 4.34448C6.43291 4.34448 4.34448 6.43291 4.34448 8.99989C4.34448 11.5669 6.43291 13.6553 8.99992 13.6553C11.5669 13.6553 13.6554 11.5669 13.6554 8.99989C13.6554 6.43288 11.5669 4.34448 8.99992 4.34448ZM8.99992 11.8446C7.42886 11.8446 6.15528 10.571 6.15528 8.99992C6.15528 7.42886 7.42889 6.15528 8.99992 6.15528C10.571 6.15528 11.8446 7.42886 11.8446 8.99992C11.8446 10.571 10.571 11.8446 8.99992 11.8446Z" fill="url(#paint1_linear)"/>
<path d="M13.6646 5.49499C14.2807 5.49499 14.7802 4.99555 14.7802 4.37946C14.7802 3.76336 14.2807 3.26392 13.6646 3.26392C13.0485 3.26392 12.5491 3.76336 12.5491 4.37946C12.5491 4.99555 13.0485 5.49499 13.6646 5.49499Z" fill="url(#paint2_linear)"/>

<linearGradient id="paint0_linear" x1="9" y1="17.9476" x2="9" y2="0.139809" gradientUnits="userSpaceOnUse">
<stop stop-color="#E09B3D"/>
<stop offset="0.3" stop-color="#C74C4D"/>
<stop offset="0.6" stop-color="#C21975"/>
<stop offset="1" stop-color="#7024C4"/>
</linearGradient>
<linearGradient id="paint1_linear" x1="8.99992" y1="17.9475" x2="8.99992" y2="0.139733" gradientUnits="userSpaceOnUse">
<stop stop-color="#E09B3D"/>
<stop offset="0.3" stop-color="#C74C4D"/>
<stop offset="0.6" stop-color="#C21975"/>
<stop offset="1" stop-color="#7024C4"/>
</linearGradient>
<linearGradient id="paint2_linear" x1="13.6646" y1="17.9475" x2="13.6646" y2="0.139754" gradientUnits="userSpaceOnUse">
<stop stop-color="#E09B3D"/>
<stop offset="0.3" stop-color="#C74C4D"/>
<stop offset="0.6" stop-color="#C21975"/>
<stop offset="1" stop-color="#7024C4"/>
</linearGradient>
</svg>
