<svg width="19" height="11" viewBox="0 0 19 11" fill="none" xmlns="http://www.w3.org/2000/svg">
  <path d="M16.3522 6.99434C16.9824 7.62387 17.6476 8.21611 18.2129 8.90912C18.4626 9.21708 18.699 9.53485 18.8799 9.89224C19.1361 10.4003 18.904 10.9593 18.4587 10.9897L15.6908 10.9884C14.9769 11.049 14.4073 10.755 13.9285 10.2556C13.5453 9.85626 13.1903 9.43124 12.8218 9.01842C12.6708 8.8497 12.5126 8.69094 12.3238 8.56542C11.9459 8.31452 11.6179 8.39132 11.402 8.7945C11.1821 9.2046 11.1321 9.65865 11.1105 10.1157C11.0809 10.7825 10.8839 10.9578 10.2292 10.9883C8.82996 11.0558 7.50204 10.8393 6.26842 10.1171C5.18082 9.48056 4.33747 8.58183 3.60338 7.56442C2.17419 5.58332 1.07965 3.40636 0.0959576 1.16843C-0.125473 0.664226 0.0364715 0.393577 0.580271 0.383972C1.48325 0.366015 2.38612 0.367306 3.29018 0.382682C3.65719 0.388187 3.90014 0.603521 4.04186 0.958223C4.5304 2.18717 5.1282 3.3564 5.87855 4.44017C6.07838 4.7287 6.28215 5.01727 6.57227 5.22034C6.89326 5.4452 7.13767 5.37068 7.28866 5.00485C7.38448 4.77289 7.42645 4.52305 7.44805 4.27465C7.51959 3.41995 7.52902 2.5667 7.40355 1.71501C7.32652 1.18347 7.03387 0.839356 6.51542 0.738788C6.25087 0.687499 6.29024 0.586779 6.41834 0.432301C6.64081 0.165867 6.85007 0 7.26721 0H10.3955C10.8879 0.0994289 10.9973 0.325773 11.0647 0.832712L11.0674 4.38759C11.062 4.58383 11.1632 5.16624 11.5087 5.29612C11.7853 5.3886 11.9676 5.16225 12.1335 4.98287C12.8825 4.16964 13.417 3.20853 13.8946 2.21333C14.1065 1.77571 14.2888 1.32128 14.4654 0.867184C14.5962 0.530249 14.8015 0.364459 15.1725 0.371786L18.1833 0.374519C18.2726 0.374519 18.3629 0.375848 18.4494 0.390996C18.9567 0.479453 19.0957 0.702722 18.939 1.20955C18.6921 2.00471 18.2117 2.66738 17.7421 3.33309C17.24 4.04382 16.703 4.73026 16.2051 5.4452C15.7476 6.09819 15.7839 6.42727 16.3522 6.99434Z" fill="#4C77A6"/>
</svg>
