<?xml version="1.0" standalone="no"?>
<!DOCTYPE svg PUBLIC "-//W3C//DTD SVG 20010904//EN"
 "http://www.w3.org/TR/2001/REC-SVG-20010904/DTD/svg10.dtd">
<svg version="1.0" xmlns="http://www.w3.org/2000/svg"
 width="619.000000pt" height="619.000000pt" viewBox="0 0 619.000000 619.000000"
 preserveAspectRatio="xMidYMid meet">
<metadata>
Created by potrace 1.14, written by Peter Selinger 2001-2017
</metadata>
<g transform="translate(0.000000,619.000000) scale(0.100000,-0.100000)"
fill="#000000" stroke="none">
<path d="M4005 6004 c-187 -44 -411 -170 -584 -329 -176 -162 -333 -431 -391
-670 -29 -123 -35 -329 -10 -346 23 -16 186 -4 272 20 166 45 323 129 468 249
66 56 95 86 169 177 31 39 59 72 62 75 3 3 8 12 12 20 4 8 18 33 32 55 14 22
39 69 56 105 17 36 35 73 41 84 16 30 58 165 75 241 16 73 28 324 15 326 -38
7 -177 2 -217 -7z"/>
<path d="M4077 4585 c-1 -2 -33 -5 -72 -9 -76 -6 -76 -6 -180 -30 -78 -18
-295 -90 -337 -112 -16 -8 -28 -12 -28 -8 0 4 -6 2 -12 -3 -14 -10 -104 -45
-113 -44 -3 1 -18 -5 -34 -14 -46 -23 -172 -55 -226 -56 -87 -3 -155 15 -340
88 -371 147 -479 173 -689 168 -67 -2 -139 -6 -161 -10 -22 -3 -50 -8 -62 -10
-13 -2 -27 -6 -32 -9 -5 -4 -22 -8 -38 -11 -64 -9 -145 -37 -253 -87 -74 -34
-226 -121 -240 -138 -3 -3 -25 -21 -50 -39 -143 -107 -335 -343 -424 -521 -87
-174 -157 -389 -181 -555 -3 -23 -8 -52 -10 -65 -26 -124 -26 -561 0 -721 2
-13 11 -73 20 -134 9 -60 20 -123 25 -140 5 -16 11 -46 14 -65 8 -51 69 -270
110 -391 91 -274 218 -544 371 -790 50 -81 264 -370 340 -459 70 -82 170 -186
215 -223 37 -31 168 -117 177 -117 5 0 28 -9 51 -20 37 -18 61 -20 236 -20
116 0 206 4 223 11 15 6 35 12 43 14 18 4 107 39 164 64 84 38 234 90 311 107
84 20 342 26 435 12 66 -11 187 -46 233 -68 22 -11 44 -20 49 -20 5 0 28 -9
53 -20 25 -11 65 -29 90 -40 114 -51 185 -62 378 -58 141 2 190 7 217 19 19 9
49 22 65 29 27 11 163 96 175 110 3 3 27 25 53 48 42 38 87 86 181 192 40 45
192 253 263 361 148 224 271 469 358 716 18 50 29 95 26 100 -3 4 -40 25 -81
47 -72 37 -212 130 -249 164 -101 95 -160 157 -205 216 -61 81 -130 186 -121
186 4 0 -3 13 -14 29 -12 16 -21 35 -21 43 0 8 -4 18 -9 24 -17 17 -70 201
-87 304 -10 58 -13 331 -4 385 27 162 59 268 119 395 25 54 103 183 124 205
10 11 25 32 34 46 17 28 176 187 233 232 19 16 56 42 82 59 41 27 46 34 37 50
-25 46 -163 197 -237 260 -112 93 -330 213 -447 245 -5 1 -41 12 -80 23 -75
22 -154 36 -250 45 -64 6 -214 13 -218 10z"/>
</g>
</svg>
